<svg width="212" height="82" viewBox="0 0 212 82" fill="none" xmlns="http://www.w3.org/2000/svg">
<rect width="211.64" height="82" rx="12" fill="url(#paint0_linear_2190_2783)"/>
<path d="M154.28 37.6468C154.163 36.6631 153.74 35.7212 153.006 34.9531C152.145 34.0563 151.016 33.6048 149.885 33.5977C148.658 33.5907 147.385 34.0422 146.45 34.9531C146.443 34.9601 146.435 34.9672 146.428 34.9743C145.541 35.8265 145.094 37.0221 145.094 38.2347L145.094 41.8809L145.094 41.9304C145.094 41.9721 145.083 42.011 145.065 42.0463C145.019 42.1431 144.919 42.2109 144.802 42.2109C144.642 42.2109 144.512 42.0845 144.512 41.9283L144.512 38.14C144.489 36.9599 144.044 35.8039 143.18 34.9743C143.173 34.9672 143.165 34.9601 143.157 34.9531C142.222 34.0422 140.95 33.5907 139.722 33.5977C138.592 33.6048 137.463 34.0563 136.601 34.9531C135.868 35.7212 135.445 36.6631 135.328 37.6468C135.287 37.8298 135.287 38.0312 135.287 38.2326L135.287 44.5096C135.287 45.6339 136.223 46.5455 137.378 46.5455L137.387 46.5455C138.541 46.5455 139.477 45.6339 139.477 44.5096L139.475 38.222C139.475 38.0658 139.605 37.9393 139.765 37.9393C139.925 37.9393 140.055 38.0658 140.055 38.222L140.055 38.2241C140.055 38.2241 140.055 38.2255 140.055 38.2262L140.055 41.9445C140.055 42.584 140.183 43.2264 140.45 43.8108C141.191 45.4318 142.865 46.5702 144.783 46.5794C144.783 46.5794 144.788 46.5794 144.79 46.5794C144.792 46.5794 144.793 46.5794 144.796 46.5794C144.798 46.5794 144.798 46.5794 144.801 46.5794C144.802 46.5794 144.803 46.5794 144.804 46.5794C144.806 46.5794 144.806 46.5794 144.808 46.5794C144.809 46.5794 144.811 46.5794 144.813 46.5794C144.815 46.5794 144.816 46.5794 144.818 46.5794C144.82 46.5794 144.823 46.5794 144.825 46.5794C146.743 46.5702 148.417 45.4311 149.159 43.8108C149.426 43.2264 149.553 42.584 149.553 41.9445L149.553 38.2262C149.553 38.2262 149.553 38.2248 149.553 38.2241L149.553 38.222C149.553 38.0658 149.683 37.9393 149.843 37.9393C150.004 37.9393 150.134 38.0658 150.134 38.222L150.131 44.5096C150.131 45.6339 151.067 46.5455 152.222 46.5455L152.231 46.5455C153.384 46.5455 154.32 45.6339 154.32 44.5096L154.32 38.2326C154.32 38.0312 154.32 37.8298 154.28 37.6468Z" fill="#F1EFEE"/>
<path d="M71.1003 39.9863C71.8889 39.3772 72.1392 38.4981 72.1552 37.5441C72.1711 35.5048 70.6433 33.5976 67.9518 33.582L59.3868 33.582C58.2775 33.582 57.3199 34.2809 57.3199 35.4306L57.3199 44.5731C57.3199 45.797 58.337 46.4216 59.3541 46.4216L67.8596 46.4216C70.2523 46.4216 72.248 44.9172 72.248 42.5125C72.248 41.5805 71.8889 40.5686 71.1003 39.9856L71.1003 39.9863ZM67.9786 42.497L61.3166 42.497L61.3166 41.9246L67.9786 41.9246C68.1418 41.9246 68.2724 42.0518 68.2724 42.2108C68.2724 42.3698 68.1418 42.497 67.9786 42.497ZM67.9786 38.0734L61.3166 38.0734L61.3166 37.5067L67.9786 37.5067C68.1418 37.5067 68.2724 37.6339 68.2724 37.7929C68.2724 37.9519 68.1418 38.0734 67.9786 38.0734Z" fill="#F1EFEE"/>
<path d="M85.5971 33.5788C85.5971 33.5788 76.6599 33.5788 76.4865 33.6163C75.563 33.7428 74.659 34.1272 73.9807 34.8246C73.1341 35.6351 72.7206 36.717 72.7206 37.7996C72.7206 38.5677 73.0427 39.4665 73.811 40.0007L73.811 40.0022C73.0035 40.6254 72.701 41.4677 72.7206 42.2549C72.7206 43.3043 73.1537 44.3861 73.9807 45.1733C74.659 45.8715 75.563 46.2743 76.4865 46.3866C76.6599 46.4191 85.5956 46.4191 85.5956 46.4191C87.5762 46.4191 87.5747 44.4285 87.5747 44.4285C87.5747 43.3636 86.6889 42.5008 85.5956 42.5008L77.064 42.4938C76.9102 42.4938 76.7854 42.3722 76.7854 42.2217L76.7854 42.1984C76.7854 42.0486 76.9102 41.9263 77.064 41.9263L85.5971 41.9263C86.6904 41.9263 87.5762 41.0635 87.5762 39.9986C87.5762 38.9337 86.6904 38.0709 85.5971 38.0709L77.064 38.0709C76.9102 38.0709 76.7854 37.9494 76.7854 37.7989L76.7854 37.7755C76.7854 37.6257 76.9102 37.5035 77.064 37.5035L85.5971 37.4964C87.5762 37.4964 87.5762 35.5058 87.5762 35.5058C87.5762 34.4409 86.6904 33.5781 85.5971 33.5781L85.5971 33.5788Z" fill="#F1EFEE"/>
<path d="M132.972 35.0067C132.107 34.1432 131.166 33.7828 130.128 33.6401C129.932 33.6238 129.747 33.5977 129.514 33.5977L124.228 33.5977C123.994 33.5977 123.798 33.6238 123.608 33.6401C122.569 33.7828 121.639 34.1432 120.764 35.0067C120.204 35.5416 119.774 36.2518 119.535 37.0036L118.518 37.0036C118.267 36.2461 117.843 35.5416 117.294 35.0017C116.424 34.1382 115.488 33.7835 114.45 33.6401C114.26 33.6238 114.069 33.5977 113.83 33.5977L108.544 33.5977C108.315 33.5977 108.119 33.6238 107.934 33.6401C106.896 33.7828 105.955 34.1382 105.085 35.001C104.187 35.8589 103.638 37.1513 103.638 38.3752L103.638 41.7968C103.638 43.015 104.187 44.3237 105.085 45.166C105.955 46.0401 106.896 46.4111 107.934 46.5376C108.119 46.58 108.315 46.58 108.544 46.58L113.83 46.58C114.069 46.58 114.259 46.58 114.45 46.5376C115.489 46.4104 116.424 46.0394 117.294 45.166C117.843 44.636 118.273 43.9266 118.512 43.1691L118.512 43.1634L119.54 43.1634L119.54 43.174C119.774 43.9315 120.204 44.636 120.764 45.166C121.639 46.0451 122.57 46.4111 123.608 46.5326C123.798 46.58 123.994 46.58 124.228 46.58L129.514 46.58C129.747 46.58 129.932 46.58 130.128 46.5326C131.167 46.4111 132.108 46.0451 132.972 45.166C133.842 44.3237 134.424 43.0157 134.424 41.7968L134.424 38.3752C134.424 37.1513 133.842 35.8589 132.972 35.006L132.972 35.0067ZM116.483 40.3672L114.069 40.3672L114.069 41.7975C114.069 41.9247 113.96 42.025 113.814 42.025L108.544 42.025C108.413 42.025 108.315 41.9247 108.315 41.7975L108.315 38.3971C108.315 38.2487 108.413 38.1321 108.544 38.1321L113.814 38.1321C113.949 38.1321 114.069 38.2431 114.069 38.3809L114.069 39.8055L116.511 39.8055C116.658 39.821 116.777 39.9376 116.777 40.086C116.777 40.2344 116.647 40.3665 116.483 40.3665L116.483 40.3672ZM120.601 40.2824L119.235 40.2824L119.235 41.0661L118.822 41.0661L118.822 40.2824L117.456 40.2824L117.456 39.8853L118.822 39.8853L118.822 39.1017L119.235 39.1017L119.235 39.8853L120.601 39.8853L120.601 40.2824ZM129.747 41.7975C129.747 41.919 129.639 42.0307 129.492 42.0307L124.228 42.0307C124.092 42.0307 123.994 41.9197 123.994 41.7975L123.994 40.3672L121.58 40.3672C121.423 40.3672 121.292 40.24 121.292 40.0867C121.292 39.9383 121.412 39.8168 121.564 39.8062L123.995 39.8062L123.995 38.3971C123.995 38.2487 124.093 38.1321 124.229 38.1321L129.493 38.1321C129.634 38.1321 129.748 38.2431 129.748 38.3809L129.748 41.7975L129.747 41.7975Z" fill="#F1EFEE"/>
<path d="M103.639 44.459L103.639 44.5275C103.639 45.6242 102.725 46.5139 101.599 46.5139L101.425 46.5139C98.3093 46.5139 93.844 46.5294 90.7934 46.5294C88.2702 46.5294 87.5193 43.5948 89.4389 42.0692L94.7305 38.0752L95.9268 38.0752C96.0901 38.0752 96.2207 37.948 96.2207 37.7947C96.2207 37.6414 96.0901 37.5085 95.9268 37.5085L94.605 37.5085L90.374 37.5029C89.3301 37.4237 88.503 36.6712 88.503 35.6331L88.503 35.5752C88.503 34.5371 89.3293 33.6785 90.374 33.5937L100.342 33.5937C102.844 33.5937 103.66 36.438 101.832 37.8682L96.5899 41.9257L96.5841 41.9314L95.3552 41.9314C95.1977 41.9314 95.0672 42.0586 95.0672 42.2119C95.0672 42.3652 95.1977 42.4924 95.3552 42.4924L95.3769 42.4924L96.7038 42.4868L101.593 42.4712L101.599 42.4712C102.725 42.4712 103.638 43.3609 103.638 44.4576L103.639 44.459Z" fill="#F1EFEE"/>
<defs>
<linearGradient id="paint0_linear_2190_2783" x1="105.82" y1="0" x2="105.82" y2="82" gradientUnits="userSpaceOnUse">
<stop stop-color="#232427"/>
<stop offset="1" stop-color="#18191B"/>
</linearGradient>
</defs>
</svg>
